{
    "accessors" : [
        {
            "bufferView" : 0, 
            "componentType" : 5123, 
            "count" : 1662, 
            "max" : [
                348
            ], 
            "min" : [
                0
            ], 
            "type" : "SCALAR"
        }, 
        {
            "bufferView" : 1, 
            "componentType" : 5126, 
            "count" : 349, 
            "max" : [
                1.0, 
                0.0, 
                1.0000005960464478
            ], 
            "min" : [
                -1.0, 
                -2.0731310844421387, 
                -1.0
            ], 
            "type" : "VEC3"
        }, 
        {
            "bufferView" : 2, 
            "componentType" : 5126, 
            "count" : 349, 
            "max" : [
                1.0, 
                0.7012543082237244, 
                0.7145603895187378
            ], 
            "min" : [
                -0.5773491859436035, 
                -0.7070833444595337, 
                -0.7149266004562378
            ], 
            "type" : "VEC3"
        }, 
        {
            "bufferView" : 3, 
            "componentType" : 5121, 
            "count" : 420, 
            "max" : [
                153
            ], 
            "min" : [
                0
            ], 
            "type" : "SCALAR"
        }, 
        {
            "bufferView" : 4, 
            "componentType" : 5126, 
            "count" : 154, 
            "max" : [
                -0.9808148145675659, 
                -0.7434350252151489, 
                0.4345019459724426
            ], 
            "min" : [
                -0.980817437171936, 
                -2.039141893386841, 
                -0.6182975769042969
            ], 
            "type" : "VEC3"
        }, 
        {
            "bufferView" : 5, 
            "componentType" : 5126, 
            "count" : 154, 
            "max" : [
                1.0, 
                0.042481765151023865, 
                0.11603137105703354
            ], 
            "min" : [
                0.9671620726585388, 
                -0.2540971040725708, 
                -0.11603137105703354
            ], 
            "type" : "VEC3"
        }
    ], 
    "asset" : {
        "generator" : "Khronos Blender glTF 2.0 exporter", 
        "version" : "2.0"
    }, 
    "bufferViews" : [
        {
            "buffer" : 0, 
            "byteLength" : 3324, 
            "byteOffset" : 0, 
            "target" : 34963
        }, 
        {
            "buffer" : 0, 
            "byteLength" : 4188, 
            "byteOffset" : 3324, 
            "target" : 34962
        }, 
        {
            "buffer" : 0, 
            "byteLength" : 4188, 
            "byteOffset" : 7512, 
            "target" : 34962
        }, 
        {
            "buffer" : 0, 
            "byteLength" : 420, 
            "byteOffset" : 11700, 
            "target" : 34963
        }, 
        {
            "buffer" : 0, 
            "byteLength" : 1848, 
            "byteOffset" : 12120, 
            "target" : 34962
        }, 
        {
            "buffer" : 0, 
            "byteLength" : 1848, 
            "byteOffset" : 13968, 
            "target" : 34962
        }
    ], 
    "buffers" : [
        {
            "byteLength" : 15816, 
            "uri" : "data:application/octet-stream;base64,"
        }
    ], 
    "materials" : [
        {
            "extras" : {
                "pbr_export_settings" : {}
            }, 
            "name" : "Material.013", 
            "pbrMetallicRoughness" : {
                "baseColorFactor" : [
                    0.800000011920929, 
                    0.800000011920929, 
                    0.800000011920929, 
                    1.0
                ], 
                "metallicFactor" : 0.0
            }
        }, 
        {
            "extras" : {
                "pbr_export_settings" : {}
            }, 
            "name" : "Material.014", 
            "pbrMetallicRoughness" : {
                "baseColorFactor" : [
                    0.011732432421035055, 
                    0.011732432421035055, 
                    0.011732432421035055, 
                    1.0
                ], 
                "metallicFactor" : 0.0
            }
        }
    ], 
    "meshes" : [
        {
            "name" : "Plane.003", 
            "primitives" : [
                {
                    "attributes" : {
                        "NORMAL" : 2, 
                        "POSITION" : 1
                    }, 
                    "indices" : 0, 
                    "material" : 0
                }, 
                {
                    "attributes" : {
                        "NORMAL" : 5, 
                        "POSITION" : 4
                    }, 
                    "indices" : 3, 
                    "material" : 1
                }
            ]
        }
    ], 
    "nodes" : [
        {
            "mesh" : 0, 
            "name" : "Plane.011", 
            "rotation" : [
                0.7071068286895752, 
                0.0, 
                -0.0, 
                0.7071068286895752
            ], 
            "scale" : [
                0.4000000059604645, 
                1.0, 
                0.15000000596046448
            ], 
            "translation" : [
                4.12121057510376, 
                2.333294630050659, 
                -1.1969575881958008
            ]
        }
    ], 
    "scene" : 0, 
    "scenes" : [
        {
            "name" : "Scene", 
            "nodes" : [
                0
            ]
        }
    ]
}
