{
  "accessors": [
    {
      "bufferView": 1,
      "componentType": 5126,
      "count": 1316,
      "max": [
        1.1380800008773804,
        0.055220000445842743,
        11.129599571228027
      ],
      "min": [
        -1.1355799436569214,
        -0.046160001307725906,
        6.6020998954772949
      ],
      "type": "VEC3"
    },
    {
      "bufferView": 1,
      "byteOffset": 15792,
      "componentType": 5126,
      "count": 1316,
      "max": [
        0.99400317668914795,
        0.99998563528060913,
        0.99999994039535522
      ],
      "min": [
        -0.99400317668914795,
        -0.99998563528060913,
        -0.99999994039535522
      ],
      "type": "VEC3"
    },
    {
      "bufferView": 0,
      "componentType": 5125,
      "count": 7548,
      "max": [
        1315
      ],
      "min": [
        0
      ],
      "type": "SCALAR"
    },
    {
      "bufferView": 1,
      "byteOffset": 31584,
      "componentType": 5126,
      "count": 1248,
      "max": [
        1.8410799503326416,
        1.8410799503326416,
        8.8271903991699219
      ],
      "min": [
        -1.8410799503326416,
        -1.8410799503326416,
        -1.975059986114502
      ],
      "type": "VEC3"
    },
    {
      "bufferView": 1,
      "byteOffset": 46560,
      "componentType": 5126,
      "count": 1248,
      "max": [
        1,
        1,
        0.99562114477157593
      ],
      "min": [
        -1,
        -1,
        -0.68571722507476807
      ],
      "type": "VEC3"
    },
    {
      "bufferView": 0,
      "byteOffset": 30192,
      "componentType": 5125,
      "count": 6132,
      "max": [
        1247
      ],
      "min": [
        0
      ],
      "type": "SCALAR"
    },
    {
      "bufferView": 1,
      "byteOffset": 61536,
      "componentType": 5126,
      "count": 6404,
      "max": [
        1.1260299682617188,
        1.1018699407577515,
        11.129599571228027
      ],
      "min": [
        -1.1305899620056152,
        -1.0852199792861938,
        -2.3665499687194824
      ],
      "type": "VEC3"
    },
    {
      "bufferView": 1,
      "byteOffset": 138384,
      "componentType": 5126,
      "count": 6404,
      "max": [
        1,
        1,
        1
      ],
      "min": [
        -1,
        -1,
        -1
      ],
      "type": "VEC3"
    },
    {
      "bufferView": 0,
      "byteOffset": 54720,
      "componentType": 5125,
      "count": 32451,
      "max": [
        6403
      ],
      "min": [
        0
      ],
      "type": "SCALAR"
    }
  ],
  "asset": {
    "generator": "Sketchfab (OSG glTF plugin)",
    "version": "2.0"
  },
  "bufferViews": [
    {
      "buffer": 0,
      "byteLength": 184524,
      "byteOffset": 0,
      "name": "ScalarBufferView",
      "target": 34963
    },
    {
      "buffer": 0,
      "byteLength": 215232,
      "byteOffset": 184524,
      "byteStride": 12,
      "name": "Vec4BufferView",
      "target": 34962
    }
  ],
  "buffers": [
    {
      "byteLength": 399756,
      "uri": "bulb.bin"
    }
  ],
  "extensionsRequired": [
    "KHR_materials_pbrSpecularGlossiness"
  ],
  "extensionsUsed": [
    "KHR_materials_pbrSpecularGlossiness"
  ],
  "materials": [
    {
      "doubleSided": true,
      "emissiveFactor": [
        0,
        0,
        0
      ],
      "extensions": {
        "KHR_materials_pbrSpecularGlossiness": {
          "diffuseFactor": [
            0.5,
            0.5,
            0.5,
            1
          ],
          "glossinessFactor": 0.58999999999999997,
          "specularFactor": [
            1,
            1,
            1
          ]
        }
      },
      "name": "Material.001"
    },
    {
      "alphaCutoff": 0.5,
      "alphaMode": "BLEND",
      "doubleSided": true,
      "emissiveFactor": [
        0,
        0,
        0
      ],
      "extensions": {
        "KHR_materials_pbrSpecularGlossiness": {
          "diffuseFactor": [
            0.5,
            0.5,
            0.5,
            0.3588160762
          ],
          "glossinessFactor": 0.80000000000000004,
          "specularFactor": [
            1,
            1,
            1
          ]
        }
      },
      "name": "Material.003"
    },
    {
      "doubleSided": true,
      "emissiveFactor": [
        0.080000001190000003,
        0.062554770709999999,
        0.018864087760000002
      ],
      "extensions": {
        "KHR_materials_pbrSpecularGlossiness": {
          "diffuseFactor": [
            0.5,
            0.5,
            0.5,
            1
          ],
          "glossinessFactor": 0.80000000000000004,
          "specularFactor": [
            1,
            1,
            1
          ]
        }
      },
      "name": "Material"
    }
  ],
  "meshes": [
    {
      "name": "GeodeCylinder",
      "primitives": [
        {
          "attributes": {
            "NORMAL": 1,
            "POSITION": 0
          },
          "indices": 2,
          "material": 2,
          "mode": 4
        }
      ]
    },
    {
      "name": "GeodeCylinder.002",
      "primitives": [
        {
          "attributes": {
            "NORMAL": 4,
            "POSITION": 3
          },
          "indices": 5,
          "material": 1,
          "mode": 4
        }
      ]
    },
    {
      "name": "GeodeCylinder.003",
      "primitives": [
        {
          "attributes": {
            "NORMAL": 7,
            "POSITION": 6
          },
          "indices": 8,
          "material": 0,
          "mode": 4
        }
      ]
    }
  ],
  "nodes": [
    {
      "children": [
        1
      ],
      "name": "RootNode (gltf orientation matrix)",
      "rotation": [
        -0.70710678118654746,
        -0,
        -0,
        0.70710678118654757
      ]
    },
    {
      "children": [
        2
      ],
      "name": "RootNode (model correction matrix)"
    },
    {
      "children": [
        3,
        5,
        7
      ],
      "name": "Root"
    },
    {
      "children": [
        4
      ],
      "matrix": [
        0.69290000000000018,
        0,
        0,
        0,
        0,
        0.69290000000000018,
        0,
        0,
        0,
        0,
        0.30995000000000006,
        0,
        0,
        0,
        -2.07735,
        1
      ],
      "name": "Cylinder"
    },
    {
      "mesh": 0,
      "name": "GeodeCylinder"
    },
    {
      "children": [
        6
      ],
      "matrix": [
        0.94145000000000001,
        0,
        0,
        0,
        0,
        0.94145000000000001,
        0,
        0,
        0,
        0,
        0.41036000000000006,
        0,
        0.003030000000000001,
        0.0058900000000000011,
        -0.64787000000000017,
        1
      ],
      "name": "Cylinder.001"
    },
    {
      "mesh": 1,
      "name": "GeodeCylinder.002"
    },
    {
      "children": [
        8
      ],
      "matrix": [
        0.69290000000000018,
        0,
        0,
        0,
        0,
        0.69290000000000018,
        0,
        0,
        0,
        0,
        0.30995000000000006,
        0,
        0,
        0,
        -2.07735,
        1
      ],
      "name": "Cylinder.002"
    },
    {
      "mesh": 2,
      "name": "GeodeCylinder.003"
    }
  ],
  "scene": 0,
  "scenes": [
    {
      "name": "OSG_Scene",
      "nodes": [
        0
      ]
    }
  ]
}

