{
    "accessors" : [
        {
            "bufferView" : 0, 
            "componentType" : 5125, 
            "count" : 36864, 
            "max" : [
                9125
            ], 
            "min" : [
                0
            ], 
            "type" : "SCALAR"
        }, 
        {
            "bufferView" : 1, 
            "componentType" : 5126, 
            "count" : 9126, 
            "max" : [
                1.0, 
                1.0, 
                1.0
            ], 
            "min" : [
                -1.0, 
                -1.0, 
                -1.0
            ], 
            "type" : "VEC3"
        }, 
        {
            "bufferView" : 2, 
            "componentType" : 5126, 
            "count" : 9126, 
            "max" : [
                1.0, 
                1.0, 
                1.0
            ], 
            "min" : [
                -1.0, 
                -1.0, 
                -1.0
            ], 
            "type" : "VEC3"
        }
    ], 
    "asset" : {
        "generator" : "Khronos Blender glTF 2.0 exporter", 
        "version" : "2.0"
    }, 
    "bufferViews" : [
        {
            "buffer" : 0, 
            "byteLength" : 147456, 
            "byteOffset" : 0, 
            "target" : 34963
        }, 
        {
            "buffer" : 0, 
            "byteLength" : 109512, 
            "byteOffset" : 147456, 
            "target" : 34962
        }, 
        {
            "buffer" : 0, 
            "byteLength" : 109512, 
            "byteOffset" : 256968, 
            "target" : 34962
        }
    ], 
    "buffers" : [
        {
            "byteLength" : 366480, 
            "uri" : "data:application/octet-stream;base64,"
        }
    ], 
    "meshes" : [
        {
            "name" : "Cube.009", 
            "primitives" : [
                {
                    "attributes" : {
                        "NORMAL" : 2, 
                        "POSITION" : 1
                    }, 
                    "indices" : 0
                }
            ]
        }
    ], 
    "nodes" : [
        {
            "mesh" : 0, 
            "name" : "Cube", 
            "scale" : [
                0.47999998927116394, 
                0.17000001668930054, 
                1.0799999237060547
            ], 
            "translation" : [
                4.143902778625488, 
                2.3349757194519043, 
                -2.19240140914917
            ]
        }
    ], 
    "scene" : 0, 
    "scenes" : [
        {
            "name" : "Scene", 
            "nodes" : [
                0
            ]
        }
    ]
}
