{"accessors":[{"bufferView":0,"componentType":5123,"count":12312,"max":[4558],"min":[0],"type":"SCALAR"},{"bufferView":1,"componentType":5126,"count":4559,"max":[1.0,1.0,1.0],"min":[-1.0,-1.0,-1.0],"type":"VEC3"},{"bufferView":2,"componentType":5126,"count":4559,"max":[1.0,1.0,0.9999999403953552],"min":[-1.0,-1.0,-1.0],"type":"VEC3"},{"bufferView":3,"componentType":5123,"count":1536,"max":[559],"min":[0],"type":"SCALAR"},{"bufferView":4,"componentType":5126,"count":560,"max":[0.7040069103240967,0.8308610916137695,0.875],"min":[-1.0,-0.975942075252533,-0.9044301509857178],"type":"VEC3"},{"bufferView":5,"componentType":5126,"count":560,"max":[7.048021188893472e-07,0.0,-0.0],"min":[-1.0,-1.0,-8.810015117433068e-08],"type":"VEC3"}],"asset":{"generator":"Khronos Blender glTF 2.0 exporter","version":"2.0"},"bufferViews":[{"buffer":0,"byteLength":24624,"byteOffset":0,"target":34963},{"buffer":0,"byteLength":54708,"byteOffset":24624,"target":34962},{"buffer":0,"byteLength":54708,"byteOffset":79332,"target":34962},{"buffer":0,"byteLength":3072,"byteOffset":134040,"target":34963},{"buffer":0,"byteLength":6720,"byteOffset":137112,"target":34962},{"buffer":0,"byteLength":6720,"byteOffset":143832,"target":34962}],"buffers":[{"byteLength":150552,"uri":"data:application/octet-stream;base64,"}],"materials":[{"extras":{"pbr_export_settings":{}},"name":"Material.015","pbrMetallicRoughness":{"baseColorFactor":[0.6400000190734865,0.6400000190734865,0.6400000190734865,1.0],"metallicFactor":0.0}},{"extras":{"pbr_export_settings":{}},"name":"Material.016","pbrMetallicRoughness":{"baseColorFactor":[0.0024750564616181914,0.0024750564616181914,0.0024750564616181914,1.0],"metallicFactor":0.0}}],"meshes":[{"name":"Cube.011","primitives":[{"attributes":{"NORMAL":2,"POSITION":1},"indices":0,"material":0},{"attributes":{"NORMAL":5,"POSITION":4},"indices":3,"material":1}]}],"nodes":[{"mesh":0,"name":"Cube.001","scale":[0.46000003814697266,0.1600000262260437,1.1100000143051147],"translation":[2.7827982902526855,2.326613187789917,-2.2585010528564453]}],"scene":0,"scenes":[{"name":"Scene","nodes":[0]}]}
