{
    "accessors" : [
        {
            "bufferView" : 0, 
            "componentType" : 5123, 
            "count" : 822, 
            "max" : [
                309
            ], 
            "min" : [
                0
            ], 
            "type" : "SCALAR"
        }, 
        {
            "bufferView" : 1, 
            "componentType" : 5126, 
            "count" : 310, 
            "max" : [
                1.0, 
                1.0, 
                1.0743200778961182
            ], 
            "min" : [
                -1.0, 
                -1.0, 
                -1.0
            ], 
            "type" : "VEC3"
        }, 
        {
            "bufferView" : 2, 
            "componentType" : 5121, 
            "count" : 354, 
            "max" : [
                119
            ], 
            "min" : [
                0
            ], 
            "type" : "SCALAR"
        }, 
        {
            "bufferView" : 3, 
            "componentType" : 5126, 
            "count" : 120, 
            "max" : [
                0.9375, 
                0.9375, 
                1.0743200778961182
            ], 
            "min" : [
                -0.9375, 
                -0.9375, 
                1.0743200778961182
            ], 
            "type" : "VEC3"
        }
    ], 
    "asset" : {
        "generator" : "Khronos Blender glTF 2.0 exporter", 
        "version" : "2.0"
    }, 
    "bufferViews" : [
        {
            "buffer" : 0, 
            "byteLength" : 1644, 
            "byteOffset" : 0, 
            "target" : 34963
        }, 
        {
            "buffer" : 0, 
            "byteLength" : 3720, 
            "byteOffset" : 1644, 
            "target" : 34962
        }, 
        {
            "buffer" : 0, 
            "byteLength" : 354, 
            "byteOffset" : 5364, 
            "target" : 34963
        }, 
        {
            "buffer" : 0, 
            "byteLength" : 1440, 
            "byteOffset" : 5720, 
            "target" : 34962
        }
    ], 
    "buffers" : [
        {
            "byteLength" : 7160, 
            "uri" : "TV_on.bin"
        }
    ], 
    "materials" : [
        {
            "extras" : {
                "pbr_export_settings" : {}
            }, 
            "name" : "Material.008", 
            "pbrMetallicRoughness" : {
                "baseColorFactor" : [
                    0.0, 
                    0.0, 
                    0.0, 
                    1.0
                ], 
                "metallicFactor" : 0.0
            }
        }, 
        {
            "extras" : {
                "pbr_export_settings" : {}
            }, 
            "name" : "Material.011", 
            "pbrMetallicRoughness" : {
                "baseColorFactor" : [
                    0.0, 
                    0.6400000190734865, 
                    0.0, 
                    1.0
                ], 
                "metallicFactor" : 0.0
            }
        }
    ], 
    "meshes" : [
        {
            "name" : "Cube.010", 
            "primitives" : [
                {
                    "attributes" : {
                        "POSITION" : 1
                    }, 
                    "indices" : 0, 
                    "material" : 0
                }, 
                {
                    "attributes" : {
                        "POSITION" : 3
                    }, 
                    "indices" : 2, 
                    "material" : 1
                }
            ]
        }
    ], 
    "nodes" : [
        {
            "mesh" : 0, 
            "name" : "TV", 
            "scale" : [
                0.6000000238418579, 
                0.3000001311302185, 
                0.020000040531158447
            ], 
            "translation" : [
                -2.597381353378296, 
                0.7526408433914185, 
                -3.101191520690918
            ]
        }
    ], 
    "scene" : 0, 
    "scenes" : [
        {
            "name" : "Scene", 
            "nodes" : [
                0
            ]
        }
    ]
}
